

The Bodyguard[1992]DvDrip[Eng]-nenad023


General
Complete name                            : The Bodyguard[1992]DvDrip[Eng]-nenad023
Format                                   : AVI
Format/Info                              : Audio Video Interleave
File size                                : 800 MiB
Duration                                 : 2h 4mn
Overall bit rate                         : 902 Kbps
Writing application                      : VirtualDubMod 1.5.4.1 (build 2178/release)
Writing library                          : VirtualDubMod build 2178/release

Video
ID                                       : 0
Format                                   : MPEG-4 Visual
Format profile                           : Advanced Simple@L5
Format settings, BVOP                    : 1
Format settings, QPel                    : No
Format settings, GMC                     : No warppoints
Format settings, Matrix                  : Custom
Codec ID                                 : XVID
Codec ID/Hint                            : XviD
Duration                                 : 2h 4mn
Bit rate                                 : 766 Kbps
Width                                    : 608 pixels
Height                                   : 320 pixels
Display aspect ratio                     : 1.900
Frame rate                               : 25.000 fps
Color space                              : YUV
Chroma subsampling                       : 4:2:0
Bit depth                                : 8 bits
Scan type                                : Progressive
Compression mode                         : Lossy
Bits/(Pixel*Frame)                       : 0.158
Stream size                              : 680 MiB (85%)
Writing library                          : XviD 64

Audio
ID                                       : 1
Format                                   : MPEG Audio
Format version                           : Version 1
Format profile                           : Layer 3
Mode                                     : Joint stereo
Mode extension                           : MS Stereo
Codec ID                                 : 55
Codec ID/Hint                            : MP3
Duration                                 : 2h 4mn
Bit rate mode                            : Constant
Bit rate                                 : 128 Kbps
Channel(s)                               : 2 channels
Sampling rate                            : 48.0 KHz
Compression mode                         : Lossy
Stream size                              : 114 MiB (14%)
Alignment                                : Aligned on interleaves
Interleave, duration                     : 80 ms (2.00 video frames)
Interleave, preload duration             : 504 ms
Writing library                          : LAME3.97 
Encoding settings                        : -m j -V 4 -q 2 -lowpass 17 -b 128

nenad023
IN MEMORIAM
Whitney Houston (1963-2012)